<?xml version="1.0" standalone="no"?>
<!DOCTYPE svg PUBLIC "-//W3C//DTD SVG 20010904//EN"
 "http://www.w3.org/TR/2001/REC-SVG-20010904/DTD/svg10.dtd">
<svg version="1.0" xmlns="http://www.w3.org/2000/svg"
 width="500.000000pt" height="500.000000pt" viewBox="0 0 500.000000 500.000000"
 preserveAspectRatio="xMidYMid meet">

<g transform="translate(0.000000,500.000000) scale(0.100000,-0.100000)"
fill="#000000" stroke="none">
<path d="M0 2500 l0 -2500 2500 0 2500 0 0 2500 0 2500 -2500 0 -2500 0 0
-2500z m3063 805 c111 -31 202 -64 278 -101 72 -35 163 -88 185 -109 6 -5 30
-25 53 -44 52 -43 125 -139 160 -211 24 -50 26 -66 25 -170 0 -109 -2 -118
-33 -179 -21 -42 -58 -89 -110 -140 -95 -94 -97 -95 -190 -148 -102 -58 -109
-54 -15 9 138 92 237 205 276 316 29 83 22 207 -15 285 -140 284 -618 460
-1212 444 -381 -10 -678 -93 -898 -250 -62 -45 -164 -145 -184 -182 -7 -11
-14 -17 -17 -15 -10 11 76 133 132 187 72 69 203 156 301 200 42 18 87 39 101
46 l25 13 0 255 0 255 143 97 142 97 0 -316 0 -317 38 7 c20 3 45 6 55 6 16 0
17 23 17 348 l1 347 137 90 c75 49 139 89 142 87 3 -1 5 -192 5 -425 l0 -422
58 -3 57 -3 0 488 0 488 23 17 c12 9 74 55 137 103 l115 86 3 -609 2 -609 63
-18z m-41 -306 c29 -11 80 -24 113 -27 81 -9 84 -30 16 -94 -28 -26 -58 -62
-67 -80 -32 -62 -54 -63 -90 -3 -32 56 -58 75 -102 75 -69 0 -108 -83 -59
-127 12 -11 68 -37 125 -57 129 -45 153 -58 198 -102 77 -77 96 -195 48 -292
-29 -58 -64 -91 -138 -130 -48 -25 -60 -27 -176 -27 -114 0 -130 2 -180 26
-125 60 -178 163 -136 263 18 44 75 86 124 93 80 11 192 -64 192 -128 0 -35
-12 -36 -66 -7 -40 21 -43 21 -68 5 -19 -13 -26 -26 -26 -48 0 -44 15 -66 60
-89 142 -72 308 52 245 183 -21 44 -62 68 -194 113 -173 59 -221 110 -221 238
0 87 57 171 145 215 57 29 186 29 257 0z m-1072 -13 c41 0 96 4 123 8 61 11
63 -6 7 -62 l-40 -40 0 -251 c0 -273 3 -288 56 -330 49 -39 150 -22 195 33 29
34 39 107 39 271 0 207 -9 245 -72 307 -60 59 -60 85 0 72 49 -10 176 -11 230
0 38 8 42 7 42 -12 0 -11 -13 -31 -30 -45 -16 -14 -41 -42 -55 -62 -25 -37
-25 -40 -25 -242 0 -190 1 -207 20 -230 26 -33 25 -44 -4 -101 -55 -107 -153
-167 -276 -166 -97 0 -164 28 -223 94 -66 73 -70 98 -77 404 l-5 268 -37 33
c-21 18 -38 40 -38 50 0 16 5 17 48 9 26 -4 81 -8 122 -8z m1850 -716 c0 -5
-9 -10 -20 -10 -18 0 -20 -7 -20 -70 0 -90 -18 -92 -22 -2 -3 61 -5 67 -25 70
-45 7 -22 22 32 22 30 0 55 -4 55 -10z m85 -42 c10 -29 20 -56 24 -60 3 -4 15
20 25 52 14 45 24 60 38 60 16 0 18 -9 18 -80 0 -64 -3 -80 -15 -80 -12 0 -15
13 -16 58 l-1 57 -20 -57 c-11 -32 -23 -58 -28 -58 -5 0 -17 26 -28 58 l-20
57 -1 -57 c-1 -45 -4 -58 -16 -58 -12 0 -15 16 -15 80 0 72 2 80 19 80 15 0
24 -13 36 -52z m-562 -148 l47 -35 -126 -3 c-70 -1 -129 -1 -131 2 -3 3 9 24
26 48 17 24 53 74 79 112 l47 69 5 -79 5 -79 48 -35z m118 -140 l99 0 -1 -97
c-1 -54 -3 -89 -6 -78 -11 54 -36 105 -59 119 -30 20 -83 23 -122 7 -57 -24
-84 -140 -48 -208 37 -72 134 -85 188 -24 15 17 28 40 28 51 0 11 5 20 10 20
6 0 10 -30 10 -69 0 -82 2 -81 -135 -81 -146 0 -134 -16 -134 182 0 94 2 175
5 180 4 6 20 7 36 4 17 -3 75 -6 129 -6z m-2312 -175 l0 -175 -134 0 -134 0 0
175 0 175 134 0 135 0 -1 -175z m326 -5 l0 -175 -124 -3 c-82 -2 -128 1 -137
9 -16 13 -20 119 -5 134 5 6 6 30 3 55 -7 44 -7 60 -4 128 l2 33 133 -3 132
-3 0 -175z m321 10 c1 -99 -2 -170 -8 -177 -7 -9 -47 -13 -133 -13 -140 0
-135 -3 -135 90 0 38 4 60 13 63 9 3 9 8 1 18 -12 15 -19 163 -9 179 4 7 55
10 138 8 l132 -3 1 -165z m322 82 c2 -58 -1 -89 -10 -100 -10 -12 -10 -16 0
-19 8 -3 12 -27 12 -72 l0 -68 -57 -5 c-32 -3 -94 -3 -138 1 l-80 6 1 30 c6
132 15 160 29 95 4 -16 20 -41 38 -56 25 -21 39 -25 74 -22 24 2 43 -1 43 -5
0 -5 10 -7 23 -5 16 2 21 9 20 25 -2 12 4 39 11 61 15 42 9 102 -14 139 -26
41 -92 55 -144 32 -27 -13 -56 -64 -56 -98 0 -22 -19 -30 -21 -8 -6 66 -8 134
-4 145 3 10 37 12 137 10 l133 -3 3 -83z m321 -87 l0 -175 -133 0 -133 0 -6
62 c-3 35 -2 67 3 73 5 6 5 30 -1 55 -6 25 -7 71 -4 103 l7 57 134 0 134 0 -1
-175z m328 83 c0 -49 -3 -88 -8 -88 -5 0 -9 -7 -9 -15 0 -8 5 -15 10 -15 6 0
10 -28 10 -65 0 -55 -3 -66 -21 -75 -19 -10 -217 -12 -246 -2 -8 3 -12 51 -11
170 0 92 2 170 5 175 2 4 64 6 136 5 l132 -3 2 -87z m473 7 c0 -81 -1 -85 -22
-86 -16 -1 -18 -3 -7 -6 22 -5 29 -33 29 -110 l0 -63 -135 0 -135 0 0 63 c0
101 4 107 62 107 52 0 118 -30 118 -53 -1 -32 -18 -40 -74 -33 -52 6 -56 5
-56 -14 0 -35 86 -54 133 -28 70 37 59 111 -23 152 -45 23 -70 50 -57 62 8 8
59 9 86 2 19 -4 27 32 9 43 -22 14 -102 10 -126 -7 -26 -18 -30 -69 -6 -95 14
-16 12 -17 -25 -21 l-41 -4 0 88 0 88 135 0 135 0 0 -85z m647 -5 c1 -52 -3
-90 -10 -99 -9 -11 -9 -15 1 -18 8 -3 12 -27 12 -74 l0 -69 -134 0 -134 0 -5
33 c-8 44 -8 297 -1 308 3 5 63 8 137 7 l132 -3 2 -85z m317 10 c-1 -41 -3
-120 -5 -175 l-4 -100 -110 -3 c-164 -4 -158 -8 -151 91 6 95 6 83 0 170 -3
37 -3 75 0 83 5 12 29 14 138 12 l133 -3 -1 -75z m-2184 -20 c21 -21 24 -33
20 -85 -3 -39 -9 -44 -25 -21 -8 11 -21 16 -30 13 -17 -7 -20 -33 -5 -42 19
-12 10 -26 -12 -19 -28 8 -41 28 -49 74 -14 77 52 129 101 80z m1440 10 c19
-10 43 -64 33 -74 -4 -3 -35 -6 -70 -6 -59 0 -63 1 -63 23 0 49 56 81 100 57z
m32 -119 c-9 -82 -132 -78 -132 4 0 26 1 26 68 23 65 -3 67 -4 64 -27z m-2064
-403 c2 -10 -2 -18 -10 -18 -37 -1 -43 -17 -48 -142 -4 -107 -7 -123 -22 -126
-16 -3 -18 6 -18 81 0 46 -3 105 -6 130 -6 39 -11 47 -35 56 -20 7 -27 15 -23
26 10 24 157 18 162 -7z m178 14 c8 -5 59 -181 79 -275 7 -30 -23 -32 -50 -3
-33 36 -82 36 -111 -1 -17 -21 -25 -25 -34 -17 -9 9 -4 43 20 140 18 71 37
137 42 147 9 18 35 22 54 9z m158 2 c8 -3 22 -28 31 -55 10 -28 22 -48 28 -46
7 2 19 22 27 45 20 52 36 70 51 55 8 -8 3 -29 -16 -77 l-27 -66 27 -71 c15
-38 25 -73 22 -76 -14 -13 -39 10 -57 52 -11 26 -24 44 -29 41 -5 -4 -17 -26
-26 -50 -17 -44 -41 -64 -56 -49 -4 4 3 35 16 68 30 72 31 97 5 154 -18 39
-26 81 -16 81 2 0 11 -3 20 -6z m436 -9 c17 -9 30 -22 30 -31 0 -23 -29 -28
-50 -9 -28 25 -64 16 -68 -17 -3 -23 3 -30 40 -49 70 -35 88 -57 88 -105 0
-38 -4 -45 -36 -64 -24 -16 -44 -21 -64 -16 -39 7 -80 35 -80 52 0 18 30 17
54 -1 25 -19 47 -19 71 -2 31 23 13 60 -45 91 -82 45 -102 95 -55 141 28 29
72 32 115 10z m272 -13 c30 -29 44 -120 29 -185 -15 -69 -39 -92 -97 -92 -34
0 -49 6 -70 26 -64 65 -44 257 28 272 39 8 91 -1 110 -21z m126 -96 c1 -67 7
-126 14 -133 6 -7 28 -13 50 -13 32 0 39 -3 36 -17 -3 -15 -15 -18 -73 -18
l-70 0 -3 130 c-3 149 1 178 26 173 15 -3 17 -19 20 -122z m186 102 c3 -13 6
-65 6 -117 0 -74 4 -98 17 -113 19 -22 33 -23 59 -4 16 12 20 31 24 133 4 96
8 118 20 118 12 0 15 -22 18 -123 l3 -123 -30 -29 c-38 -38 -88 -40 -128 -6
-27 24 -28 27 -31 141 -2 64 -1 123 2 131 8 22 33 17 40 -8z m364 2 c1 -9 -9
-20 -28 -27 l-30 -11 0 -115 c0 -81 -4 -118 -13 -125 -28 -23 -36 3 -39 123
-3 120 -3 120 -30 133 -16 7 -28 20 -28 28 0 22 163 16 168 -6z m112 -122 c6
-159 5 -168 -21 -168 -18 0 -19 9 -19 148 0 82 3 152 7 156 21 20 28 -10 33
-136z m212 131 c27 -14 58 -85 58 -134 0 -99 -43 -165 -109 -165 -64 1 -96 41
-107 134 -9 76 16 142 60 162 38 16 71 17 98 3z m147 -3 c6 -7 29 -47 50 -87
21 -40 44 -75 50 -77 6 -2 11 28 13 85 2 70 6 88 18 88 13 0 15 -23 15 -150 0
-143 -1 -150 -20 -150 -15 0 -31 22 -65 87 -25 49 -51 88 -57 88 -10 0 -13
-25 -13 -90 0 -89 -5 -101 -28 -78 -13 13 -18 279 -5 291 11 11 30 8 42 -7z"/>
<path d="M898 1843 c-4 -116 2 -167 23 -189 47 -50 146 -34 168 26 6 18 11 75
11 126 0 94 0 94 -25 94 -24 0 -25 -2 -25 -64 l0 -65 -37 -4 -38 -4 38 -1 c34
-2 37 -4 37 -31 0 -34 -23 -61 -51 -61 -28 0 -61 37 -59 68 1 15 2 57 1 95 -1
60 -3 67 -21 67 -17 0 -20 -7 -22 -57z"/>
<path d="M1220 1835 c0 -44 -4 -65 -12 -65 -9 0 -9 -3 0 -12 7 -7 12 -39 12
-75 0 -61 1 -63 25 -63 24 0 25 2 25 70 0 95 15 94 71 -7 28 -53 38 -63 61
-63 26 0 26 1 30 73 2 39 1 101 -2 137 -4 58 -7 65 -27 68 -22 3 -23 0 -23
-62 0 -86 -16 -86 -66 -1 -33 55 -42 65 -66 65 -28 0 -28 -1 -28 -65z m64 -50
c3 -8 1 -15 -4 -15 -6 0 -10 7 -10 15 0 8 2 15 4 15 2 0 6 -7 10 -15z m96 -41
c0 -8 -4 -12 -10 -9 -5 3 -10 10 -10 16 0 5 5 9 10 9 6 0 10 -7 10 -16z"/>
<path d="M1619 1838 c-4 -197 -2 -213 22 -213 22 0 22 2 23 138 1 136 1 137
-21 137 -21 0 -23 -5 -24 -62z"/>
<path d="M2180 1805 c0 -125 14 -160 70 -175 48 -13 98 -1 116 28 6 10 15 37
19 60 4 23 12 42 18 42 8 0 7 4 -2 9 -9 6 -14 29 -15 67 -1 53 -3 59 -23 62
-22 3 -23 0 -23 -62 l0 -66 -55 0 -55 0 0 65 c0 63 -1 65 -25 65 -25 0 -25 0
-25 -95z m157 -62 c10 -25 -19 -68 -49 -71 -33 -4 -58 21 -58 59 0 28 1 29 50
29 38 0 52 -4 57 -17z"/>
<path d="M2530 1836 c0 -63 -1 -65 -27 -69 l-28 -4 28 -2 c27 -1 27 -2 27 -71
l0 -70 80 0 c79 0 80 0 80 25 0 24 -3 25 -55 25 l-55 0 0 39 0 38 73 9 c53 6
63 9 37 12 -19 2 -39 8 -44 13 -6 5 -23 9 -39 9 -26 0 -28 3 -25 33 3 31 4 32
53 32 44 0 50 3 53 23 3 21 1 22 -77 22 l-81 0 0 -64z"/>
<path d="M3629 1833 c-4 -157 6 -185 72 -205 37 -10 46 -10 78 8 29 15 38 27
44 59 5 22 13 48 18 58 6 11 5 17 -1 17 -6 0 -10 28 -10 65 0 63 -1 65 -25 65
-24 0 -25 -2 -26 -67 -1 -38 0 -83 1 -101 2 -41 -14 -62 -49 -62 -36 0 -51 17
-51 56 0 31 2 33 43 37 l42 4 -42 1 -43 2 0 65 c0 63 -1 65 -25 65 -24 0 -25
-3 -26 -67z"/>
<path d="M3965 1763 l0 -138 74 -3 c89 -4 101 0 94 27 -5 18 -13 21 -65 21
l-59 0 2 113 c2 111 1 112 -22 115 l-24 3 0 -138z"/>
<path d="M1933 1763 c15 -2 39 -2 55 0 15 2 2 4 -28 4 -30 0 -43 -2 -27 -4z"/>
<path d="M1539 1213 c-5 -15 -9 -38 -7 -52 2 -20 9 -26 28 -26 19 0 26 6 28
26 4 31 -13 79 -28 79 -6 0 -15 -12 -21 -27z"/>
<path d="M2341 1284 c-16 -21 -21 -41 -21 -89 0 -97 50 -145 100 -95 34 34 24
178 -13 202 -23 14 -46 8 -66 -18z"/>
<path d="M3374 1302 c-23 -15 -34 -53 -34 -114 0 -51 4 -69 20 -86 28 -30 54
-28 80 6 19 23 21 37 18 94 -5 86 -41 129 -84 100z"/>
</g>
</svg>
